<svg width="176" height="176" viewBox="0 0 176 176" fill="none" xmlns="http://www.w3.org/2000/svg">
  <path fill-rule="evenodd" clip-rule="evenodd" d="M153.542 11.6631C144.912 18.113 129.484 29.6378 119.259 37.2754C103.082 49.3562 100.897 51.218 102.437 51.6048C103.41 51.8495 108.005 53.3574 112.646 54.956L121.087 57.863L147.905 33.5742C162.655 20.2162 174.897 8.95683 175.109 8.55348C175.389 8.02083 170.339 0.515164 169.354 0.00017401C169.288 -0.0348217 162.172 5.21328 153.542 11.6631ZM83.8043 37.5228C50.0528 52.6704 22.4724 65.166 22.5141 65.2917C22.5569 65.4171 34.4249 68.7514 48.8882 72.701C75.9182 80.0825 77.0971 80.5664 75.4966 83.6119C75.1144 84.3392 63.1034 94.0333 48.8056 105.154C20.4944 127.174 16.5073 130.321 17.2519 130.063C18.1011 129.768 52.986 114.718 92.8896 97.431C113.965 88.3009 135.031 79.2025 139.705 77.212C144.654 75.1033 147.859 73.3171 147.381 72.9321C146.931 72.5686 134.337 68.2874 119.394 63.4187C91.5638 54.3504 90.2592 53.7604 91.7926 50.928C92.1312 50.3024 104.323 40.934 118.887 30.1095C133.451 19.2843 145.322 10.3272 145.269 10.2044C145.216 10.0824 117.557 22.3755 83.8043 37.5228ZM136.803 84.8632C126.241 89.4537 106.101 98.172 92.0471 104.238C23.0781 134.005 1.31805 143.596 0.887834 144.414C0.49307 145.165 14.9207 174.115 16.6243 175.987C16.9372 176.332 29.2492 169.519 43.9845 160.847C58.7194 152.176 91.5862 132.888 117.022 117.986C142.458 103.085 163.333 90.7711 163.411 90.6229C163.537 90.3818 157.723 79.148 156.503 77.2796C156.23 76.8605 147.364 80.2734 136.803 84.8632ZM40.7365 76.5516C28.4758 73.2485 18.2326 70.6107 17.9738 70.6913C17.2519 70.9167 23.7937 89.6068 24.7736 90.1192C25.2469 90.3667 31.5808 91.5406 38.8478 92.7278L52.0602 94.8865L55.5784 92.2947C57.5127 90.8696 60.7092 88.4303 62.6805 86.8749L66.2655 84.0466L64.6469 83.3023C63.7571 82.8935 52.9976 79.8558 40.7365 76.5516Z" fill="white"/>
</svg>
